<svg width="80" height="80" viewBox="0 0 80 80" fill="none" xmlns="http://www.w3.org/2000/svg">
  <path d="M36.6667 36.6667H6.66667V43.3333H36.6667V36.6667Z" fill="#121217" fill-opacity="0.9"/>
  <path d="M36.6667 56.6667H6.66667V63.3333H36.6667V56.6667Z" fill="#121217" fill-opacity="0.9"/>
  <path d="M66.6667 16.6667V23.3333H6.66667V16.6667H66.6667Z" fill="#121217" fill-opacity="0.9"/>
  <path fill-rule="evenodd" clip-rule="evenodd"
        d="M55.5513 44.1779C54.248 43.0102 52.2335 43.0525 50.9763 44.3097C49.6746 45.6112 49.6745 47.7219 50.9762 49.0235L60 58.0473L69.0236 49.0236C70.3253 47.7221 70.3255 45.6114 69.0238 44.3098C67.7666 43.0526 65.752 43.0102 64.4487 44.1779L60 48.164L55.5513 44.1779ZM46.2624 39.5955C50.0346 35.8235 56.0726 35.6939 60 39.2127C63.9273 35.6939 69.9654 35.8235 73.7375 39.5955C77.6431 43.5006 77.6431 49.8327 73.7375 53.7378L60 67.4754L46.2624 53.7378C46.2624 53.7378 46.2625 53.7379 46.2624 53.7378C42.357 49.8328 42.357 43.5006 46.2624 39.5955Z"
        fill="#121217" fill-opacity="0.9"/>
</svg>
