<svg width="24" height="24" viewBox="0 0 24 24" fill="none" xmlns="http://www.w3.org/2000/svg">
<path fill-rule="evenodd" clip-rule="evenodd" d="M14.7447 16.4417C13.4172 17.4211 11.7762 18 10 18C5.58172 18 2 14.4183 2 10C2 5.58172 5.58172 2 10 2C14.4183 2 18 5.58172 18 10C18 11.7762 17.4211 13.4172 16.4418 14.7447L21 19.3029L19.303 21L14.7447 16.4417ZM15.6 10C15.6 13.0928 13.0928 15.6 10 15.6C6.90721 15.6 4.4 13.0928 4.4 10C4.4 6.90721 6.90721 4.4 10 4.4C13.0928 4.4 15.6 6.90721 15.6 10Z" fill="black"/>
</svg>
